<svg version="1.1" xmlns="http://www.w3.org/2000/svg" xmlns:xlink="http://www.w3.org/1999/xlink" width="83" height="83" viewBox="0,0,83,83"><defs><linearGradient x1="197.375" y1="178.1328" x2="280.375" y2="178.1328" gradientUnits="userSpaceOnUse" id="color-1"><stop offset="0" stop-color="#8dc63f"/><stop offset="1" stop-color="#006838"/></linearGradient><radialGradient cx="238.875" cy="178.1328" r="33.9434" gradientUnits="userSpaceOnUse" id="color-2"><stop offset="0" stop-color="#d7df23"/><stop offset="1" stop-color="#009444"/></radialGradient><linearGradient x1="220.3366" y1="167.18149" x2="258.26175" y2="167.18149" gradientUnits="userSpaceOnUse" id="color-3"><stop offset="0.012" stop-color="#66b3e3"/><stop offset="1" stop-color="#1c75bc"/></linearGradient></defs><g transform="translate(-197.375,-136.632)"><g data-paper-data="{&quot;isPaintingLayer&quot;:true}" fill-rule="nonzero" stroke="none" stroke-width="1" stroke-linecap="butt" stroke-linejoin="miter" stroke-miterlimit="10" stroke-dasharray="" stroke-dashoffset="0" style="mix-blend-mode: normal"><path d="M280.375,178.132c0,22.882 -18.616,41.5 -41.5,41.5c-22.883,0 -41.5,-18.618 -41.5,-41.5c0,-22.883 18.616,-41.5 41.5,-41.5c22.884,0 41.5,18.618 41.5,41.5z" fill="url(#color-1)"/><path d="M204.931,178.133c0,-18.74675 15.19725,-33.944 33.944,-33.944c18.74675,0 33.944,15.19725 33.944,33.944c0,18.74675 -15.19725,33.944 -33.944,33.944c-18.74675,0 -33.944,-15.19725 -33.944,-33.944z" fill="url(#color-2)"/><path d="M258.26179,174.98774c0,1.98044 -1.60619,3.58622 -3.58622,3.58622h-30.75355c-1.98044,0 -3.5858,-1.60619 -3.5858,-3.58622v-15.61308c0,-1.98044 1.60536,-3.5858 3.5858,-3.5858h30.75313c1.98128,0 3.58622,1.60536 3.58622,3.5858v15.61308z" fill="url(#color-3)"/><path d="M256.83856,159.37466v15.61266c0,1.19277 -0.9698,2.16298 -2.1634,2.16298h-30.75313c-1.19235,0 -2.16298,-0.97022 -2.16298,-2.16298v-15.61308c0,-1.19277 0.97063,-2.16298 2.16298,-2.16298h30.75313c1.1936,0 2.1634,0.97063 2.1634,2.1634z" fill="#27aae1"/><text transform="translate(211.37935,193.76822) scale(0.23543,0.23543)" font-size="40" xml:space="preserve" fill="#000000" fill-rule="nonzero" stroke="none" stroke-width="1" stroke-linecap="butt" stroke-linejoin="miter" stroke-miterlimit="10" stroke-dasharray="" stroke-dashoffset="0" font-family="Sans Serif" font-weight="normal" text-anchor="start" style="mix-blend-mode: normal"><tspan x="0" dy="0">Clickcounter</tspan></text></g></g></svg>